<?xml version="1.0" encoding="utf-8"?>
<!-- Generator: Adobe Illustrator 24.0.1, SVG Export Plug-In . SVG Version: 6.00 Build 0)  -->
<svg version="1.1" id="图层_1" xmlns="http://www.w3.org/2000/svg" xmlns:xlink="http://www.w3.org/1999/xlink" x="0px" y="0px"
	 viewBox="0 0 321 259" style="enable-background:new 0 0 321 259;" xml:space="preserve">
<style type="text/css">
	.st0{fill-rule:evenodd;clip-rule:evenodd;fill:#0064FF;}
</style>
<path class="st0" d="M319,118.42c0,56.61-29.71,106.28-74.38,134.29c-2.79,1.74-5.6,3.54-9.11,3.54c-3.77,0-7.78-2.27-10.3-4.78
	l-64.34-63.57l-65.41,64.84l-0.03,0c-2.31,2.1-5.59,3.52-9.09,3.52c-2.35,0-4.24-0.52-6.47-1.65l-0.09,0.05
	C33.34,227.03,2.23,176.36,2.23,118.42c0-41.44,15.92-79.17,41.98-107.4c1.56-1.92,3.35-3.53,2.46-2.6c0,0,4.75-6.33,16.34-6.33
	c13.39,0,24.25,10.86,24.25,24.25c0,6.23-2.35,11.91-6.21,16.21l0.06,0.05c-18.81,19.72-30.37,46.42-30.37,75.82
	c0,30.53,12.45,58.14,32.55,78.05l43.3-42.88l-42.88-43.14c-0.53-0.49-1.04-0.99-1.52-1.53l-0.14-0.14l0.01-0.01
	c-3.82-4.29-6.15-9.94-6.15-16.13c0-13.39,10.86-24.25,24.25-24.25c6.2,0,11.85,2.33,16.13,6.15l0.01-0.01l0.13,0.13
	c0.62,0.56,1.21,1.16,1.78,1.79l47.95,48.24l-0.06,0.06l13.69,13.69l58.4,57.83c19.97-19.9,32.33-47.43,32.33-77.84
	c0-29.61-11.71-56.47-30.75-76.23l0.12-0.02c-3.67-4.25-5.89-9.78-5.89-15.84c0-13.39,10.86-24.25,24.25-24.25
	c7.59,0,14.36,3.49,18.8,8.94C303.08,39.26,319,76.98,319,118.42z M245.95,92.64c0,13.39-10.86,24.25-24.25,24.25
	c-13.39,0-24.25-10.86-24.25-24.25c0-13.39,10.86-24.25,24.25-24.25C235.09,68.39,245.95,79.25,245.95,92.64z"/>
</svg>
